<?xml version="1.0" encoding="UTF-8"?>
<svg id="Layer_1" xmlns="http://www.w3.org/2000/svg" xmlns:xlink="http://www.w3.org/1999/xlink" version="1.1" viewBox="0 0 1300 650">
  <!-- Generator: Adobe Illustrator 30.4.0, SVG Export Plug-In . SVG Version: 2.1.4 Build 226)  -->
  <defs>
    <style>
      .st0 {
        fill: #6f7680;
      }

      .st1 {
        fill: #d0d4d8;
      }

      .st2 {
        fill: #bcc1c7;
      }

      .st3 {
        fill: #969da5;
      }

      .st4 {
        fill: #828a93;
      }

      .st5 {
        fill: #aab0b7;
      }

      .st6 {
        fill: url(#radial-gradient);
        stroke: #fff;
        stroke-linejoin: round;
        stroke-width: 3.7px;
      }

      .st7 {
        fill: #fff;
        isolation: isolate;
        opacity: .92;
      }
    </style>
    <radialGradient id="radial-gradient" cx="7475.76" cy="8867.22" fx="7475.76" fy="8867.22" r=".48" gradientTransform="translate(-508332.1513 1010885.9032) scale(68 -114)" gradientUnits="userSpaceOnUse">
      <stop offset="0" stop-color="#ffb15c"/>
      <stop offset="1" stop-color="#f98c26"/>
    </radialGradient>
    <symbol id="Contest_Pin" viewBox="0 0 54.04 88.1">
      <g id="map-pin">
        <path id="pin-shape" class="st6" d="M27.02,86.25S1.85,50.71,1.85,27.02C1.85,13.12,13.12,1.85,27.02,1.85s25.17,11.27,25.17,25.17c0,23.69-25.17,59.22-25.17,59.22Z"/>
        <circle id="pin-center" class="st7" cx="27.02" cy="27.02" r="11.1"/>
      </g>
    </symbol>
  </defs>
  <path class="st0" d="M367.68,343.74l-4.97-2.75-4.8,7.68-17.24-12.16-6.6-15.09-13.52-2.82-12.49-10.19-6.74,2.45-25.07-11.83-7.2-7.41-1.93-12.67-22.39-27.71-3.32-9.94-5.88-2.82.37,7.34,18.92,31.28-2.16,1.62-7.76-8.58-.43-5.71-9.95-7.67,3.23-3.78-11.32-20.08-12.01-7.01-13.64-25.57,1.81-23.36-2.85-11.92,5.66.64,1.92,4.23-.91-8.53-10.05-6.35-6.54-1.86-1.5-6.72-4.62-1.91-17.87-24.06-47.08-12.38-16.61,7.75,3.95-9.54-12.27,8.67,2.64,2.18-3.41,3.22-15.17,9.65-22.94,7.12,25.51-14.19,2.46-6.04-17.8,1.1-1.98-5.9-10.21-2.33-1.41-7.02,4.24-4.81,13.68-2.77-2.69-2.86,2.67-1.73-15.1,1.53-11.38-5.48,13.13-4.06,10.1,2.06-18.36-10.05,36.77-13.45,72.5,11.03,30.21-7.11,8.6,4.5,4.81-3.04.49,3.4,10.17-1.78,27.35,6.27-5.08,2.22,23.2,2.34,3.93-2.27-3.69-1.9,2.34-1.53,24.24,4.51,10.87-.6,2.79-3.58,5.6,1.52-.02,4.24,6.83-7.96-8.08-4.57.29-4.95,9.03-2.54,8.56,7.03-3.2,2.21,6.71.9v4.59s4.81-3.52,4.81-3.52l6.74,9.24,6.4-7.11.2-4.92,10.47,1,5.06,4.45-2.68,2.39,2.08,4.58-15.82,2.48-5.61,7.99-12.21,5.23-12.78,12.15-1.6,8.74,5.31.75,3.32,7.6,36.19,8.69.54,8.39,7.99,9.27,4.73-6.07-4.43-9.44,11.87-8.36-7.13-10.18,4.26-4.7-2.78-11.06,15.41-.56,15.34,6.2,1.09,9.43,5.92,3.34,11.07-9.52,11.51,15.1-1.45,2.82,21.82,13.76.26,5.03-15.71,8.54-22.98.06-17,15.27,21.84-10.8,3.2,2.19-3.41,3.01,2.32,8.22,4.69,2.24,5.97-.65,3.62-5.04,2.59,4.87-20.09,10.65-2.88-4.12,6.27-3.71-9.79.69-12.67,9.18,2.46,6.52-13.53,3.16h6.38s-7.25.81-7.25.81l-3.44,8.12-2.25-2.51,1.7,4.91-3.19,5.32-1.48-8.67.08,4.79-2.39-.71,4.56,12.06-20.25,18.42,4.62,20.45-1.17,7.5-4.8-2.97-7.22-18.23-9.72-2.08-11.53,1.07.67,4.49-16.04-2.48-12.71,10.46-1.82,22.12,7.12,16.21,5.33,3.07,10.9-3.28,4.07-9.52,11.66-2.44-6.79,25.36,19.94,2.76-1.44,18.68,5.78,9.45,9.51-2.76,9.88,4.36,6.97-10.96,11.39-6.07,2.22,1.45-2.92,3.1.91,10.54,1.06-8.51,5.27-5.35,6.31,7.21,11.93,2.14,10.87-2.86-1.83,3.44,18.92,17.82,11.52.97,9.54,6.96,4.85,11.06-2.62,6.78,7.51,2.06.13,4.49,2.74-2.94,10.54,4.35,1.17,5.11,16.62.81,17.13,11.62.39,15.83-12.81,18.21-2.14,21.56-6.06,18.24-24.21,13.22-4.47,16.98-17.76,25.66-8.7,2.07-7.99-4.26,5.92,13.42-8.82,8.15-11.21.48-1.48,9.87-8.57.16.51,4.45,5.49,2.26-6.23,4.18-1.38,6.91-6.25,2.31-1.03,3.36,7,4.19-1.24,4.02-11.39,11.66,3.57,7.25-4.73-.26-5,2.72-.58,4.19-14.23-7.04-2.39-16.09,5.35-7.78-5.48-1.31,4.67-11.4,4.01,1.58,1.89-9.29-5.83,3.77,4.02-17.78-1.33-9.42,7.76-21.24,4.6-56.76-4.69-10.73-16.42-12.17-13.54-33.42-5.38-4.74-.58-6.27,5.92-9.32-4.32-1.84.12-5.34,13.74-21.99-3.8-20.04Z"/>
  <path class="st4" d="M319.27,13.92l67.73-6,39.65,2.71-20.97,5.05,7.86-.02-20.58,7.65-20.68,2.14,5.47,3.57-15.77,5.9,6.75,1.94-9.65,2.69-32.24-1.32,6.22-3.17-1.78-3.23,11.86,1.62-10.78-3.74,10.35-4.36-6.63-4.06,18.36-.96-20.77-.23-14.4-6.18Z"/>
  <path class="st3" d="M404.75,66.69l3.42,4.2-6.63,2.09,25.11,8.33-7.47,8.35-14.79-5.67,12.08,12.87-1.24,3.22-13.61-4.8,9.45,8.13-31.31-12.32-13.43.48,2.37-3.3,14.22-.65,4.73-8.21-2.39-3.51-20.38-9.41-35.12-1.09-3-1.57,3.77-2.05-5.13-.02-1.14-4.54,6.49-5.84,9.32-1.19-2.66,2.9,2.85,2.79,12.49-5.45,6.19,4.63-.53,2.94,10.56-3.08,35.78,11.77Z"/>
  <path class="st5" d="M574.72,10.19l-39.91,2.36,35.49,2.09-3.97,2.61,26.73-3.41,12.85,2.78-28.3,5,8.36.21-7.13,6.18.12,4.99,4.33,2.93-11.58,1.6,6.67,2.38.85,3.8-3.87.42,4.68,3.86-15.14,4.43,4.57,5.03-9-.65,10.98,7.47-13.69-3.44,1.24,3.04-4.2,2.36,14.5.43-63.07,20.94-10.86,12.44,1.46,3.51-3.47,8.08-17.64-3.41-12.17-12.41-8.44-15.97,11.19-12.28-13.77,1.43,1.17-5.43,10.72,1.13-16.05-4.87,4.04-4.17-13.97-13.14-35.82-2.44-10.46-4.25,16.75-1.64-23.59-3,27.39-6.05-8.35-3.24,27.95-8.59,35.72-1.82,21.19,3.49-8.09-4.34,42.16-4.56,51.43,4.12Z"/>
  <path class="st2" d="M617.48,359.37l-12.36-10.89-15.11-22-3.66-11.47,5.34-15.15-3.31-12.96,9.48-23.56,17.6-16.49.95-11.8,12.18-14.32,13.57,2.65,13.14-6.44,29.04-3.34,5.74,2.02-2.74,13.96,31.58,15.78,3.79-8.84,5.08-2.71,26.62,8.84,7.45-3.07,10.1,2.63,8.03-16.48.59-8.99-30.76-.04-5.31-12.57,11.08-7.87,15.43-3.59,17.46,4.8,11.58-2.63-.37-4.97-17.25-11.66,8.83-9.05-15.02,4.44,4.96,5.2-8.86,3.37-5.15-4.33,3.04-3.37-9.2-2.26-11.11,17.96,4.09,6.82-8.84,4.05-5.17-3.56-4.37,1.16.67,3.25-4.6-1.32,5.1,11.67-3.34-1.19.14,6.71-2.4.06-11.13-17.22.48-6.59-23.1-18-2.94,1.59.94,5.78,21.27,17.59-5.81-1.23.66,6.9-3.44,4.11-2.48-9.24-23.56-19.36-8.52,5.55-12.38.24-.22,5.3-8.05,3.94-2.53,10.2-8.15,9.25-11.67,3.26-4.13-4.46-8.58.33-1.79-27.6,28.92-4.47.69-8.93-12.27-11.96,10.74.17-1.14-5.07,11.81-1.57,12.16-13.29,12.34-1.96,2.45-2.21-2.46-6.71,1.53-7.14,7.36-2.78,1.2,5.7-4.56,4.44,4.65,6.55,31.5-1.87,5.8-3.43,1.13-9.96,9.17,1.73,1.12-6.08-3.94-3.61,20.87-3.77-22.56.82-5.59-3.92.77-11.07,13.95-8.61-5.4-4.02-6.21,1.27-2.94,5.87-12.72,7.46-2.63,6.32,6.02,5.64-7.07,6.11-3.43,11.72-10.6,3.33-9.34-18.41-7.13,5.18-9.81-1.23-2.43-15.17,51.25-35.17,32.43-6.13,11.29,3.28-4.65,1.2,3.96,2.81,19.55,2.22,16.41,7.2.24,2.98-9.9,3.55-18.78-2.83,5.89,3.28.47,6.66,7.47,2.53-1.71-4.1,2.3-1.7,8.73,2.79,3.04-1.09-2.43-3.28,8.41-4.39,6.71,1.82,2.1-3.08-3.9-8.13,10.1,1.44,2.07,2.51-4.55,3.04,2.84,1.54,26.61-9.82,2.72.22-3.56,2.72,19.2-3.04,4.12,2.7,4.1-2.97-3.79-2.6,1.88-1.48,28.76,7.88,2.41-2.34-8.13-3.76-.85-7.06,11.72-9.02,10.31,3.68-3.42,3.64,3.41,4.56-.82,6.14,3.98,2.75-8.62,9.36,4.13.66,9.49-7.12-.42-5.51-4.82-2.86,2.89-4.5-4.69-3.66,6.46-3.02-.84-3.19,3.7,2.39-1.42,4.32,3.86.82-1.65-3.23,6.05-1.76,14.17,2.32-3.58-8.51,22.79-1.3-2.93-2.34,4.18-2.94,49.08-5.89,12.98-5.69,10.43,5.46,13.85-1.03,11.04,3.87-17.09,7.47,49.83,5.42.21-3.42,13.43.76,15.57,12.45,3.48-4.7,27.51,1.56-2.61-4.16,4.77-1.94,32.61,2.91,12.53,6.09,21.77-.11,7.01,6.4,24.9-.65,6.29,3.99,4.48-1.44-2.92-2.86,1.61-1.99,34.47,5.08v17.86l-9.35,1.66,6.56,10.33-20.03,2.92-12.1,7.94-5.16-3.1-19.36,3.16-5.5,7.28,4.24,2.82-3.88,12.37-6.31,2.29-1.25,5.12-5.39,1.09-6.28,8.73-4.9-19.59,1.73-6.21,28.01-19.61,2.9-6.31-15.71,8.99-2.96-5.51-9.32,1.52-9.04,7.51,2.98,2.75-13.64,1.63.26-3.24-5.61-.68-27.4,2.76-25.53,19.32,10.97,4.37,6.27-1.94,5.34,8.74-4.76,17-6.65,9.59-12.1,13.04-9.36.51-17.13,15.81,6.96,13.33-1.34,7.63-9.41,3.1-1.33-10.47,2.69-.75-7.76-5.45,2.2-6.46-15.41,2.93,4.02-6.84-1.9-2.35-12.99,7.81-1.85,2.09,4.98,5.78,12.45-.02-11.58,11.4,9.95,14.43-2.32,4.55,2.99,3.78-1.47,7.21-10.94,16.48-9.99,7.91-18.43,6.22-1.23,4.73-6.94-6.16-9.54,8.8,12.47,28.36-.49,7.88-14.59,13.75-.3-5.91-17.98-15.64-3.16,18.69,13.51,16.65,4.57,18.97-10.25-6.58-4.71-16.6-5.71-8.6-.59,2.63,1.53-16.34-5.78-24.6-6.48,5.44-4.26-1.45.49-9.75-10.5-20.41-3.33-.17-.8,4.34-11.91,1.53-1.72,6.02-22.3,19.06-1.68,24.85-8.37,10.72-14.47-35.98-3.26-24.05-7.8,2.15-14.8-20.39-32.41-1.41-3.27-6.29-6.42,2.97-11.53-6.21-5.08-10.23-7.73.77,10.24,23.4.73-5.61,2.08.92.75,7.99,7.99-.46,8.5-10.19,1.74,9.65,10.7,8.66-7.15,9.27-.48,5.82-8.74,7.69-23.81,14.46-18.77,6.13-3.01-18.55-12.67-20.25-2.34-10.75-13.94-19.59,1.17-5.81-.12-.65-.36-1.17-3.26,9.47-5.41-9.87,11.21,30.25,4.84,4.94,2.22,15.18,21.08,27.9-2.18,2.94,6.86,5.79,23.46-7.09-.24,6.2-11.93,28.79-27.01,30.45-3.83,9.43-.05,17.07,4.66,10.22,1.07,17.6-2.47,6.32-19.15,16.51,2.43,19.45-10.42,7.19-.41,11.54-8.69,12.73-15.43,12.57-22.26,3.92-4.48-3.06-.56-11.09-10.87-20.49-3.44-22.33-9.46-24.37,7.2-20.78-1.43-15.58-4.77-15.8-11.26-17.6,3.6-18.76-4.67-7.62-9.4,2.29-5.68-9.01-22.71,7-25.43-.55Z"/>
  <path class="st1" d="M1085.43,533.14l-9.23,5.08-10.83-3.89,2.8-8.93-8.89-27.29,3.23.81-3.03-8.57,1.24-8.56,10.74-7.95,14.97-4.57,7.78-14.69,3.06,2.97-1.29-2.12,7.89-10.6,4.98-1.85,9.23,5.16,3.6-10.91,7.06-1.89-2.71-3.77,1.93-.65,10.62,5.02,4.31-1.75,1.66,2.22-5.24,11.86,17.02,12.16,3.83-5.93,4.48-25.64,5.08,17.39,5.24,1.96,3.66,17.81,8.89,6.42,3,8.75,3.78.27,7.69,12.84,2.58,12.75-2.45,15.82-10.45,25.93-13.29,7.22-4.64-5.11-5.14,4.1-10.73-3.54-3.84-8.44-5.25-2.35.31-5.51-4.97,3.93,3.54-10.58-6.58,8.92-6.19-10.19-10.65-5.03-18.69,3.23-8.99,7.51-11.12.18Z"/>
  <path class="st0" d="M1275.62,566.32l2.56-1.82,1.05,3.78-5.55,7.18,1.33,2.16-5.87,1.74-3.02,7.47-4.64,3.29-9.59-1.89,19.57-23.6,2.53-2.07,1.63,3.76Z"/>
  <path class="st4" d="M1277.8,556.52l3.05-7.91-7.44-12.79,6.11,3.3,5.89,10.27,9.24.62-11.84,17.9-2.13-1.82,2.09-3.69-4.97-5.88Z"/>
  <use width="54.04" height="88.1" transform="translate(1051.4569 500.2631) scale(.4915)" xlink:href="#Contest_Pin"/>
  <use width="54.04" height="88.1" transform="translate(749.72 479.52) scale(.49)" xlink:href="#Contest_Pin"/>
  <use width="54.04" height="88.1" transform="translate(834.94 239.81) scale(.49)" xlink:href="#Contest_Pin"/>
  <use width="54.04" height="88.1" transform="translate(623.44 145.52) scale(.49)" xlink:href="#Contest_Pin"/>
  <use width="54.04" height="88.1" transform="translate(605 176.52) scale(.49)" xlink:href="#Contest_Pin"/>
  <use width="54.04" height="88.1" transform="translate(45.6 281.7) scale(.49)" xlink:href="#Contest_Pin"/>
  <use width="54.04" height="88.1" transform="translate(202.15 189.8) scale(.49)" xlink:href="#Contest_Pin"/>
  <use width="54.04" height="88.1" transform="translate(283.04 271.33) scale(.49)" xlink:href="#Contest_Pin"/>
  <use width="54.04" height="88.1" transform="translate(319.27 281.7) scale(.49)" xlink:href="#Contest_Pin"/>
  <use width="54.04" height="88.1" transform="translate(86.29 426.81) scale(.49)" xlink:href="#Contest_Pin"/>
  <use width="54.04" height="88.1" transform="translate(3.72 412.98) scale(.49)" xlink:href="#Contest_Pin"/>
  <use width="54.04" height="88.1" transform="translate(489.19 440.63) scale(.49)" xlink:href="#Contest_Pin"/>
  <use width="54.04" height="88.1" transform="translate(1191.279 475.7022) scale(.4915)" xlink:href="#Contest_Pin"/>
  <use width="54.04" height="88.1" transform="translate(1162.4335 517.1724) scale(.4915)" xlink:href="#Contest_Pin"/>
</svg>