<svg xmlns="http://www.w3.org/2000/svg" viewBox="0 0 1300 650" role="img" aria-labelledby="title desc">
<title id="title">Simplified grayscale world map for Surf Contest Atlas hero background</title>
<desc id="desc">A 1300 pixel wide grayscale world map showing major landmasses, including New Zealand, optimized as a hero background.</desc>
<path d="M 367.68 343.74 L 362.71 340.99 L 357.91 348.67 L 340.67 336.51 L 334.07 321.42 L 320.55 318.60 L 308.06 308.41 L 301.32 310.86 L 276.25 299.03 L 269.05 291.62 L 267.12 278.95 L 244.73 251.24 L 241.41 241.30 L 235.53 238.48 L 235.90 245.82 L 254.82 277.10 L 252.66 278.72 L 244.90 270.14 L 244.47 264.43 L 234.52 256.76 L 237.75 252.98 L 226.43 232.90 L 214.42 225.89 L 200.78 200.32 L 202.59 176.96 L 199.74 165.04 L 205.40 165.68 L 207.32 169.91 L 206.41 161.38 L 196.36 155.03 L 189.82 153.17 L 188.32 146.45 L 183.70 144.54 L 165.83 120.48 L 118.75 108.10 L 102.14 115.85 L 106.09 106.31 L 93.82 114.98 L 96.46 117.16 L 93.05 120.38 L 77.88 130.03 L 54.94 137.15 L 80.45 122.96 L 82.91 116.92 L 65.11 118.02 L 63.13 112.12 L 52.92 109.79 L 51.51 102.77 L 55.75 97.96 L 69.43 95.19 L 66.74 92.33 L 69.41 90.60 L 54.31 92.13 L 42.93 86.65 L 56.06 82.59 L 66.16 84.65 L 47.80 74.60 L 84.57 61.15 L 157.07 72.18 L 187.28 65.07 L 195.88 69.57 L 200.69 66.53 L 201.18 69.93 L 211.35 68.15 L 238.70 74.42 L 233.62 76.64 L 256.82 78.98 L 260.75 76.71 L 257.06 74.81 L 259.40 73.28 L 283.64 77.79 L 294.51 77.19 L 297.30 73.61 L 302.90 75.13 L 302.88 79.37 L 309.71 71.41 L 301.63 66.84 L 301.92 61.89 L 310.95 59.35 L 319.51 66.38 L 316.31 68.59 L 323.02 69.49 L 323.01 74.08 L 327.83 70.56 L 334.57 79.80 L 340.97 72.69 L 341.17 67.77 L 351.64 68.77 L 356.70 73.22 L 354.02 75.61 L 356.10 80.19 L 340.28 82.67 L 334.67 90.66 L 322.46 95.89 L 309.68 108.04 L 308.08 116.78 L 313.39 117.53 L 316.71 125.13 L 352.90 133.82 L 353.44 142.21 L 361.43 151.48 L 366.16 145.41 L 361.73 135.97 L 373.60 127.61 L 366.47 117.43 L 370.73 112.73 L 367.95 101.67 L 383.36 101.11 L 398.70 107.31 L 399.79 116.74 L 405.71 120.08 L 416.78 110.56 L 428.29 125.66 L 426.84 128.48 L 448.66 142.24 L 448.92 147.27 L 433.21 155.81 L 410.23 155.87 L 393.23 171.14 L 415.07 160.34 L 418.27 162.53 L 414.86 165.54 L 417.18 173.76 L 421.87 176.00 L 427.84 175.35 L 431.46 170.31 L 434.05 175.18 L 413.96 185.83 L 411.08 181.71 L 417.35 178.00 L 407.56 178.69 L 394.89 187.87 L 397.35 194.39 L 383.82 197.55 L 390.20 197.56 L 382.95 198.36 L 379.51 206.48 L 377.26 203.97 L 378.96 208.88 L 375.77 214.20 L 374.29 205.53 L 374.37 210.32 L 371.98 209.61 L 376.54 221.67 L 356.29 240.09 L 360.91 260.54 L 359.74 268.04 L 354.94 265.07 L 347.72 246.84 L 338.00 244.76 L 326.47 245.83 L 327.14 250.32 L 311.10 247.84 L 298.39 258.30 L 296.57 280.42 L 303.69 296.63 L 309.02 299.70 L 319.92 296.42 L 323.99 286.90 L 335.65 284.46 L 328.86 309.82 L 348.80 312.58 L 347.36 331.26 L 353.14 340.71 L 362.65 337.95 L 372.53 342.31 L 379.50 331.35 L 390.89 325.28 L 393.11 326.73 L 390.19 329.83 L 391.10 340.37 L 392.16 331.86 L 397.43 326.51 L 403.74 333.72 L 415.67 335.86 L 426.54 333.00 L 424.71 336.44 L 443.63 354.26 L 455.15 355.23 L 464.69 362.19 L 469.54 373.25 L 466.92 380.03 L 474.43 382.09 L 474.56 386.58 L 477.30 383.64 L 487.84 387.99 L 489.01 393.10 L 505.63 393.91 L 522.76 405.53 L 523.15 421.36 L 510.34 439.57 L 508.20 461.13 L 502.14 479.37 L 477.93 492.59 L 473.46 509.57 L 455.70 535.23 L 447.00 537.30 L 439.01 533.04 L 444.93 546.46 L 436.11 554.61 L 424.90 555.09 L 423.42 564.96 L 414.85 565.12 L 415.36 569.57 L 420.85 571.83 L 414.62 576.01 L 413.24 582.92 L 406.99 585.23 L 405.96 588.59 L 412.96 592.78 L 411.72 596.80 L 400.33 608.46 L 403.90 615.71 L 399.17 615.45 L 394.17 618.17 L 393.59 622.36 L 379.36 615.32 L 376.97 599.23 L 382.32 591.45 L 376.84 590.14 L 381.51 578.74 L 385.52 580.32 L 387.41 571.03 L 381.58 574.80 L 385.60 557.02 L 384.27 547.60 L 392.03 526.36 L 396.63 469.60 L 391.94 458.87 L 375.52 446.70 L 361.98 413.28 L 356.60 408.54 L 356.02 402.27 L 361.94 392.95 L 357.62 391.11 L 357.74 385.77 L 371.48 363.78 L 367.68 343.74 Z" fill="#6f7680" />
<path d="M 319.27 13.92 L 387.00 7.92 L 426.65 10.63 L 405.68 15.68 L 413.54 15.66 L 392.96 23.31 L 372.28 25.45 L 377.75 29.02 L 361.98 34.92 L 368.73 36.86 L 359.08 39.55 L 326.84 38.23 L 333.06 35.06 L 331.28 31.83 L 343.14 33.45 L 332.36 29.71 L 342.71 25.35 L 336.08 21.29 L 354.44 20.33 L 333.67 20.10 L 319.27 13.92 Z" fill="#828a93" />
<path d="M 404.75 66.69 L 408.17 70.89 L 401.54 72.98 L 426.65 81.31 L 419.18 89.66 L 404.39 83.99 L 416.47 96.86 L 415.23 100.08 L 401.62 95.28 L 411.07 103.41 L 379.76 91.09 L 366.33 91.57 L 368.70 88.27 L 382.92 87.62 L 387.65 79.41 L 385.26 75.90 L 364.88 66.49 L 329.76 65.40 L 326.76 63.83 L 330.53 61.78 L 325.40 61.76 L 324.26 57.22 L 330.75 51.38 L 340.07 50.19 L 337.41 53.09 L 340.26 55.88 L 352.75 50.43 L 358.94 55.06 L 358.41 58.00 L 368.97 54.92 L 404.75 66.69 Z" fill="#969da5" />
<path d="M 574.72 10.19 L 534.81 12.55 L 570.30 14.64 L 566.33 17.25 L 593.06 13.84 L 605.91 16.62 L 577.61 21.62 L 585.97 21.83 L 578.84 28.01 L 578.96 33.00 L 583.29 35.93 L 571.71 37.53 L 578.38 39.91 L 579.23 43.71 L 575.36 44.13 L 580.04 47.99 L 564.90 52.42 L 569.47 57.45 L 560.47 56.80 L 571.45 64.27 L 557.76 60.83 L 559.00 63.87 L 554.80 66.23 L 569.30 66.66 L 506.23 87.60 L 495.37 100.04 L 496.83 103.55 L 493.36 111.63 L 475.72 108.22 L 463.55 95.81 L 455.11 79.84 L 466.30 67.56 L 452.53 68.99 L 453.70 63.56 L 464.42 64.69 L 448.37 59.82 L 452.41 55.65 L 438.44 42.51 L 402.62 40.07 L 392.16 35.82 L 408.91 34.18 L 385.32 31.18 L 412.71 25.13 L 404.36 21.89 L 432.31 13.30 L 468.03 11.48 L 489.22 14.97 L 481.13 10.63 L 523.29 6.07 L 574.72 10.19 Z" fill="#aab0b7" />
<path d="M 617.48 359.37 L 605.12 348.48 L 590.01 326.48 L 586.35 315.01 L 591.69 299.86 L 588.38 286.90 L 597.86 263.34 L 615.46 246.85 L 616.41 235.05 L 628.59 220.73 L 642.16 223.38 L 655.30 216.94 L 684.34 213.60 L 690.08 215.62 L 687.34 229.58 L 718.92 245.36 L 722.71 236.52 L 727.79 233.81 L 754.41 242.65 L 761.86 239.58 L 771.96 242.21 L 779.99 225.73 L 780.58 216.74 L 749.82 216.70 L 744.51 204.13 L 755.59 196.26 L 771.02 192.67 L 788.48 197.47 L 800.06 194.84 L 799.69 189.87 L 782.44 178.21 L 791.27 169.16 L 776.25 173.60 L 781.21 178.80 L 772.35 182.17 L 767.20 177.84 L 770.24 174.47 L 761.04 172.21 L 749.93 190.17 L 754.02 196.99 L 745.18 201.04 L 740.01 197.48 L 735.64 198.64 L 736.31 201.89 L 731.71 200.57 L 736.81 212.24 L 733.47 211.05 L 733.61 217.76 L 731.21 217.82 L 720.08 200.60 L 720.56 194.01 L 697.46 176.01 L 694.52 177.60 L 695.46 183.38 L 716.73 200.97 L 710.92 199.74 L 711.58 206.64 L 708.14 210.75 L 705.66 201.51 L 682.10 182.15 L 673.58 187.70 L 661.20 187.94 L 660.98 193.24 L 652.93 197.18 L 650.40 207.38 L 642.25 216.63 L 630.58 219.89 L 626.45 215.43 L 617.87 215.76 L 616.08 188.16 L 645.00 183.69 L 645.69 174.76 L 633.42 162.80 L 644.16 162.97 L 643.02 157.90 L 654.83 156.33 L 666.99 143.04 L 679.33 141.08 L 681.78 138.87 L 679.32 132.16 L 680.85 125.02 L 688.21 122.24 L 689.41 127.94 L 684.85 132.38 L 689.50 138.93 L 721.00 137.06 L 726.80 133.63 L 727.93 123.67 L 737.10 125.40 L 738.22 119.32 L 734.28 115.71 L 755.15 111.94 L 732.59 112.76 L 727.00 108.84 L 727.77 97.77 L 741.72 89.16 L 736.32 85.14 L 730.11 86.41 L 727.17 92.28 L 714.45 99.74 L 711.82 106.06 L 717.84 111.70 L 710.77 117.81 L 707.34 129.53 L 696.74 132.86 L 687.40 114.45 L 680.27 119.63 L 670.46 118.40 L 668.03 103.23 L 719.28 68.06 L 751.71 61.93 L 763.00 65.21 L 758.35 66.41 L 762.31 69.22 L 781.86 71.44 L 798.27 78.64 L 798.51 81.62 L 788.61 85.17 L 769.83 82.34 L 775.72 85.62 L 776.19 92.28 L 783.66 94.81 L 781.95 90.71 L 784.25 89.01 L 792.98 91.80 L 796.02 90.71 L 793.59 87.43 L 802.00 83.04 L 808.71 84.86 L 810.81 81.78 L 806.91 73.65 L 817.01 75.09 L 819.08 77.60 L 814.53 80.64 L 817.37 82.18 L 843.98 72.36 L 846.70 72.58 L 843.14 75.30 L 862.34 72.26 L 866.46 74.96 L 870.56 71.99 L 866.77 69.39 L 868.65 67.91 L 897.41 75.79 L 899.82 73.45 L 891.69 69.69 L 890.84 62.63 L 902.56 53.61 L 912.87 57.29 L 909.45 60.93 L 912.86 65.49 L 912.04 71.63 L 916.02 74.38 L 907.40 83.74 L 911.53 84.40 L 921.02 77.28 L 920.60 71.77 L 915.78 68.91 L 918.67 64.41 L 913.98 60.75 L 920.44 57.73 L 919.60 54.54 L 923.30 56.93 L 921.88 61.25 L 925.74 62.07 L 924.09 58.84 L 930.14 57.08 L 944.31 59.40 L 940.73 50.89 L 963.52 49.59 L 960.59 47.25 L 964.77 44.31 L 1013.85 38.42 L 1026.83 32.73 L 1037.26 38.19 L 1051.11 37.16 L 1062.15 41.03 L 1045.06 48.50 L 1094.89 53.92 L 1095.10 50.50 L 1108.53 51.26 L 1124.10 63.71 L 1127.58 59.01 L 1155.09 60.57 L 1152.48 56.41 L 1157.25 54.47 L 1189.86 57.38 L 1202.39 63.47 L 1224.16 63.36 L 1231.17 69.76 L 1256.07 69.11 L 1262.36 73.10 L 1266.84 71.66 L 1263.92 68.80 L 1265.53 66.81 L 1300.00 71.89 L 1300.00 89.75 L 1290.65 91.41 L 1297.21 101.74 L 1277.18 104.66 L 1265.08 112.60 L 1259.92 109.50 L 1240.56 112.66 L 1235.06 119.94 L 1239.30 122.76 L 1235.42 135.13 L 1229.11 137.42 L 1227.86 142.54 L 1222.47 143.63 L 1216.19 152.36 L 1211.29 132.77 L 1213.02 126.56 L 1241.03 106.95 L 1243.93 100.64 L 1228.22 109.63 L 1225.26 104.12 L 1215.94 105.64 L 1206.90 113.15 L 1209.88 115.90 L 1196.24 117.53 L 1196.50 114.29 L 1190.89 113.61 L 1163.49 116.37 L 1137.96 135.69 L 1148.93 140.06 L 1155.20 138.12 L 1160.54 146.86 L 1155.78 163.86 L 1149.13 173.45 L 1137.03 186.49 L 1127.67 187.00 L 1110.54 202.81 L 1117.50 216.14 L 1116.16 223.77 L 1106.75 226.87 L 1105.42 216.40 L 1108.11 215.65 L 1100.35 210.20 L 1102.55 203.74 L 1087.14 206.67 L 1091.16 199.83 L 1089.26 197.48 L 1076.27 205.29 L 1074.42 207.38 L 1079.40 213.16 L 1091.85 213.14 L 1080.27 224.54 L 1090.22 238.97 L 1087.90 243.52 L 1090.89 247.30 L 1089.42 254.51 L 1078.48 270.99 L 1068.49 278.90 L 1050.06 285.12 L 1048.83 289.85 L 1041.89 283.69 L 1032.35 292.49 L 1044.82 320.85 L 1044.33 328.73 L 1029.74 342.48 L 1029.44 336.57 L 1011.46 320.93 L 1008.30 339.62 L 1021.81 356.27 L 1026.38 375.24 L 1016.13 368.66 L 1011.42 352.06 L 1005.71 343.46 L 1005.12 346.09 L 1006.65 329.75 L 1000.87 305.15 L 994.39 310.59 L 990.13 309.14 L 990.62 299.39 L 980.12 278.98 L 976.79 278.81 L 975.99 283.15 L 964.08 284.68 L 962.36 290.70 L 940.06 309.76 L 938.38 334.61 L 930.01 345.33 L 915.54 309.35 L 912.28 285.30 L 904.48 287.45 L 889.68 267.06 L 857.27 265.65 L 854.00 259.36 L 847.58 262.33 L 836.05 256.12 L 830.97 245.89 L 823.24 246.66 L 833.48 270.06 L 834.21 264.45 L 836.29 265.37 L 837.04 273.36 L 845.03 272.90 L 853.53 262.71 L 855.27 272.36 L 865.97 281.02 L 858.82 290.29 L 858.34 296.11 L 849.60 303.80 L 825.79 318.26 L 807.02 324.39 L 804.01 305.84 L 791.34 285.59 L 789.00 274.84 L 775.06 255.25 L 776.23 249.44 L 776.11 248.79 L 775.75 247.62 L 772.49 257.09 L 767.08 247.22 L 778.29 277.47 L 783.13 282.41 L 785.35 297.59 L 806.43 325.49 L 804.25 328.43 L 811.11 334.22 L 834.57 327.13 L 834.33 333.33 L 822.40 362.12 L 795.39 392.57 L 791.56 402.00 L 791.51 419.07 L 796.17 429.29 L 797.24 446.89 L 794.77 453.21 L 775.62 469.72 L 778.05 489.17 L 767.63 496.36 L 767.22 507.90 L 758.53 520.63 L 743.10 533.20 L 720.84 537.12 L 716.36 534.06 L 715.80 522.97 L 704.93 502.48 L 701.49 480.15 L 692.03 455.78 L 699.23 435.00 L 697.80 419.42 L 693.03 403.62 L 681.77 386.02 L 685.37 367.26 L 680.70 359.64 L 671.30 361.93 L 665.62 352.92 L 642.91 359.92 L 617.48 359.37 Z" fill="#bcc1c7" />
<path d="M 1085.43 533.14 L 1076.20 538.22 L 1065.37 534.33 L 1068.17 525.40 L 1059.28 498.11 L 1062.51 498.92 L 1059.48 490.35 L 1060.72 481.79 L 1071.46 473.84 L 1086.43 469.27 L 1094.21 454.58 L 1097.27 457.55 L 1095.98 455.43 L 1103.87 444.83 L 1108.85 442.98 L 1118.08 448.14 L 1121.68 437.23 L 1128.74 435.34 L 1126.03 431.57 L 1127.96 430.92 L 1138.58 435.94 L 1142.89 434.19 L 1144.55 436.41 L 1139.31 448.27 L 1156.33 460.43 L 1160.16 454.50 L 1164.64 428.86 L 1169.72 446.25 L 1174.96 448.21 L 1178.62 466.02 L 1187.51 472.44 L 1190.51 481.19 L 1194.29 481.46 L 1201.98 494.30 L 1204.56 507.05 L 1202.11 522.87 L 1191.66 548.80 L 1178.37 556.02 L 1173.73 550.91 L 1168.59 555.01 L 1157.86 551.47 L 1154.02 543.03 L 1148.77 540.68 L 1149.08 535.17 L 1144.11 539.10 L 1147.65 528.52 L 1141.07 537.44 L 1134.88 527.25 L 1124.23 522.22 L 1105.54 525.45 L 1096.55 532.96 L 1085.43 533.14 Z" fill="#d0d4d8" />
<path d="M 1275.62 566.32 L 1278.18 564.50 L 1279.23 568.28 L 1273.68 575.46 L 1275.01 577.62 L 1269.14 579.36 L 1266.12 586.83 L 1261.48 590.12 L 1251.89 588.23 L 1271.46 564.63 L 1273.99 562.56 L 1275.62 566.32 Z" fill="#6f7680" />
<path d="M 1277.80 556.52 L 1280.85 548.61 L 1273.41 535.82 L 1279.52 539.12 L 1285.41 549.39 L 1294.65 550.01 L 1282.81 567.91 L 1280.68 566.09 L 1282.77 562.40 L 1277.80 556.52 Z" fill="#828a93" />
</svg>