<?xml version="1.0" encoding="UTF-8"?><svg xmlns="http://www.w3.org/2000/svg" viewBox="0 0 200 82"><g id="Layer_7"><path d="M53.29,44.27l-.77-.34-.74.97-2.65-1.54-1.02-1.9-8.89-2.83-1.11-.93-.29-1.6-3.45-3.5-.51-1.25-.9-.35.05.92,2.91,3.95-1.52-.88-.07-.72-1.53-.97.5-.48-1.74-2.53-1.85-.88-2.1-3.23-.16-4.45,1.17.62-.14-1.08-1.55-.8-1.01-.24-.23-.84-3.46-3.28-7.24-1.56-2.56.98.61-1.21-4.34,2.99-3.53.9,3.93-1.79.37-.76-2.73.14-.31-.75-1.57-.29-.21-.89,2.75-.95-.41-.36.41-.22-2.32.19-1.75-.69,3.57-.25-2.83-1.27,5.66-1.7,11.15,1.4,4.65-.9,10.7,1.75.61-.28-.57-.24.36-.2,3.73.57,2.1-.52.86.19v.53l1.05-1-1.25-.58.05-.62,1.39-.32,1.32.88-.5.28,1.04.12v.58s.74-.45.74-.45l1.03,1.17,1.02-1.52,2.39.69-.09.88-2.44.31-4.71,3.2-.24,1.1.81.1.51.96,5.57,1.09.08,1.06,1.23,1.17.73-.77-.68-1.19,1.83-1.05-1.1-1.29.66-.59-.43-1.39,2.37-.07,2.36.78.17,1.19.91.42,1.7-1.2,1.55,2.26,3.35,1.73.04.64-2.41,1.08h-3.54l-2.61,1.93,3.36-1.36.49.27-.53.38.36,1.04.72.28.92-.08.56-.63.4.61-3.09,1.34-.45-.52.97-.46-1.51.08-1.95,1.16.38.82-2.08.4h.98l-1.11.1-.53,1.03-.35-.32.26.62-.49.67-.23-1.09-.35.51.7,1.52-3.12,2.33.53,3.52-.73-.37-1.12-2.3-1.49-.26-1.77.13.1.57-2.47-.31-1.95,1.32-.28,2.79,1.09,2.04,2.5-.03.63-1.2,1.79-.3-1.05,3.19,3.07.35-.22,2.36.89,1.19,1.46-.35,1.52.55,1.08-1.38,1.75-.76.03,1.9.97-1.75.97.91,3.51-.09-.28.43,2.91,2.25,1.77.12,1.47.88.75,1.4-.41.85,1.16.26.02.57.42-.37,1.62.55.18.64,2.56.1,2.63,1.47.06,2-1.97,2.29-1.26,5.02-3.72,1.67-.69,2.14-2.73,3.24-1.34.26-1.23-.53.91,1.69-1.36,1.03-1.72.06-.23,1.24-1.32.02.93.85-2.14,1.69-.15.42,1.07.53-.19.51-1.75,1.47.55.91-.73-.03-.77.34-.09.53-2.19-.89-.36-2.03.82-.98-.84-.16.71-1.44.62.2.29-1.17-.9.47.42-3.43,1.19-2.68.71-7.16-.72-1.35-2.53-1.54-2.08-4.21-.83-.6.82-1.97-.66-.23.02-.67,2.11-2.78-.58-2.53Z" fill="#7d858f"/><path d="M85.14,2.2l-6.14.29,10.94.52-4.36.63,1.29.02-1.1.78.69,1-1.78.2,1.02.3.13.48-.59.06.72.48-2.33.56.7.64-1.38-.09,1.68.95-2.1-.44-.46.68,2.23.06-9.7,2.64-1.67,1.57-.31,1.46-2.71-.43-1.88-1.56-1.29-2.02,1.72-1.55-2.12.18.18-.68,1.65.14-2.47-.61.62-.53-2.15-1.66-5.51-.31-1.61-.53,2.58-.21-3.63-.38,4.21-.76-1.28-.41,4.3-1.08,8.76.21-1.25-.55,6.49-.57,7.91.52Z" fill="#9098a1"/><path d="M91.72,46.25l-4.23-4.15-.56-1.45.82-1.91-.51-1.64,1.46-2.97,2.71-2.08.14-1.49,1.88-1.8,2.08.33,2.02-.81,4.47-.42.89.25-.43,1.76,4.86,1.99,1.37-1.45,4.09,1.11,2.7-.05,1.33-3.22h-4.73l-.82-1.59,4.08-1.44,2.68.6,1.79-.33-.06-.63-2.65-1.47,1.35-1.14-2.31.56.77.66-1.37.42-.79-.54.47-.43-1.42-.28-1.71,2.26.63.86-3.43.45.79,1.47-.52-.15-.35.86-1.71-2.17.08-.83-3.56-2.28-.31.93,3.28,2.22-.9-.15-.43,1.39-.38-1.17-3.62-2.44-3.22.73-.03.67-1.24.49-.39,1.29-1.25,1.17-1.8.41-1.95-.52-.28-3.48,4.45-.57.11-1.12-1.89-1.51,1.65.02-.17-.64,1.81-.2,1.87-1.68,1.9-.24.24-2.03,1.13-.35.18.72-.7.56.72.83,4.84-.24.9-.43.17-1.26,1.41.22.17-.77-.6-.45,3.21-.48-3.47.1-.86-.49.11-1.4,2.15-1.08-.83-.51-3.36,1.84-.41.8.93.71-1.09.77-.53,1.48-1.63.42-1.44-2.32-1.09.65-1.51-.15-.38-1.92,7.89-4.43,4.99-.78,1.74.42-.72.15.61.35,5.53,1.19-1.49.83-2.88-.36.9.41.07.84,1.15.32.09-.73,1.35.35,1.39-1.1,1.03.23.32-.39-.6-1.03,1.55.18.32.32-.7.38.44.2,4.09-1.24,3.46.33.63-.38-.29-.51,4.42.99.37-.29-1.25-.48-.13-.89,1.81-1.14,1.58.47-.52.46,1.01,1.69-1.33,1.18.64.09,1.46-.9-.81-1.06.44-.56-.72-.47.87-.78.94.95-.25-.41.93-.22,2.18.29-.55-1.07,3.5-.16-.45-.3.65-.37,7.55-.74,1.99-.72,5.44,1.05-2.63.94,7.66.68.04-.43,2.06.1,2.4,1.57.53-.6,4.24.2-.41-.52.74-.25,10.29,1.12,1.08.81,3.83-.08.97.5.69-.18-.2-.61,5.3.64v2.25l-1.44.21,1.01,1.3-3.08.37-1.86,1h-3.77s-.85.93-.85.93l.65.36-.59,1.56-2.96,2.17-.49-3.25,4.31-2.48.44-.79-2.41,1.13-.46-.7-1.43.2-1.39.94.46.35-7.14.06-3.93,2.44,2.65.3.82,1.11-1.75,3.35-1.86,1.65-1.44.06-2.64,2,1.07,1.68-.2.96-1.45.39-.2-1.32.41-.1-1.2-.68.34-.82-2.37.37.33-1.16-2,.99.48.99h1.92l-1.78,1.44,1.53,1.82-.13,1.96-3.22,3.07-2.83.79-.19.6-1.07-.78-1.47,1.11,1.92,3.58-.07.99-2.25,1.74-.04-.75-2.77-1.97-.49,2.35,2.08,2.1.7,2.4-1.57-.83-.73-2.1-.97-.75.24-2.06-.89-3.1-1.65.5.07-1.23-1.61-2.58-2.47.72-.26.76-3.44,2.41-.25,3.13-1.29,1.35-2.23-4.53-.5-3.04-1.2.27-2.28-2.57-4.98-.18-.51-.79-.98.37-1.78-.78-.78-1.29-1.19.1,1.58,2.95.43-.59.11,1.01,1.23-.06,1.31-1.29.27,1.22,1.65,1.09-2.52,2.88-6.55,2.59-.47-2.34-4.45-6.38.18-.73-.02-.08-.05-.15-.5,1.19-.84-1.24,2.47,4.44.34,1.91,3.25,3.52-.34.37,1.06.73,3.61-.89-.04.78-1.84,3.63-4.74,5.03v2.16s.71,1.29.71,1.29l-.22,3.01-2.94,2.09.37,2.45-1.6.91-.07,1.45-1.33,1.61-2.38,1.59-3.42.49-.69-.39-.09-1.4-1.67-2.58-.53-2.82-1.45-3.07,1.1-2.62-.22-1.97-2.46-4.21.55-2.37-.72-.96-1.44.29-.88-1.14-3.49.89-3.91-.07Z" fill="#a4abb3"/><path d="M169.68,66.79l-7.39,2.02-1.67-.49.43-1.13-1.36-3.44.49.1-.27-2.16,3.95-1.58,2.69-3.08,2.18.41.56-1.37,1.08-.24-.12-.56,2.3.41-.55,1.78,2.62,1.53,1.28-3.98.78,2.2.8.24.57,2.25,2.41,1.95,1.58,3.23-1.99,5.26-2.04.91-.72-.64-.79.52-1.65-.45-1.4-1.36.05-.7-.76.5.54-1.34-1.01,1.13-.95-1.29-1.64-.63Z" fill="#b7bdc4"/><path d="M192.33,72.14l1.19.46-.64,1.18-.91.22-.46.94-2.19.18,3.01-2.98Z" fill="#c7ccd1"/><path d="M193.3,71.12l.47-1-1.14-1.61,1.84,1.71,1.43.08-1.82,2.25-.78-1.43Z" fill="#7d858f"/></g><g id="Layer_3"><rect width="200" height="82" fill="#5bc9c9" opacity=".56"/></g><g id="Bold"><path d="M28.77,43.75c-1.46.43-2.83.67-4.12.7-1.29.03-2.64-.18-4.03-.64l-1.42-4.78,3.07-.91,1.26,2.68c.51.22,1.15.33,1.93.33.78,0,1.59-.13,2.43-.38.71-.21,1.29-.49,1.72-.84.43-.35.73-.74.87-1.18.15-.44.15-.91,0-1.41-.14-.47-.38-.85-.72-1.15s-.82-.52-1.44-.66-1.42-.22-2.41-.23c-1.7,0-3.15-.11-4.34-.35-1.19-.24-2.15-.67-2.89-1.28s-1.27-1.46-1.59-2.53c-.32-1.07-.3-2.1.05-3.09s.98-1.88,1.89-2.67c.91-.78,2.05-1.39,3.42-1.82,1.51-.47,2.91-.69,4.2-.66,1.28.03,2.45.26,3.51.68l1.33,4.45-2.97.89-1.32-2.56c-.41-.11-.93-.17-1.56-.16-.63.01-1.32.13-2.06.35-.63.19-1.16.45-1.59.78-.43.33-.73.72-.9,1.17-.17.45-.18.93-.03,1.44.13.44.37.79.71,1.05.34.26.84.45,1.51.57.66.12,1.55.2,2.66.23,2.36-.04,4.25.26,5.68.92,1.42.66,2.38,1.8,2.86,3.42.33,1.12.32,2.18-.04,3.18s-1.02,1.88-1.99,2.65c-.96.77-2.18,1.37-3.64,1.81Z" fill="#fff"/><path d="M43.74,39.86c-1.58.34-2.92.11-4.04-.69-1.12-.8-1.91-2.26-2.37-4.38l-1.36-6.24-1.74-.06-.53-2.44,1.65-.36,4.04-.88,1.98,9.12c.23,1.07.59,1.8,1.06,2.18.47.38,1.09.49,1.85.33.6-.13,1.1-.36,1.51-.7.41-.34.72-.75.92-1.25l-1.72-7.91-1.88-.03-.53-2.44,1.79-.39,4.04-.88,2.64,12.13,1.89.02.53,2.42-5.34,1.16-.69-1.84c-.32.8-.79,1.47-1.42,2s-1.39.9-2.28,1.09Z" fill="#fff"/><path d="M54.98,37.26l-.38-2.45,1.89-.72-1.45-9.39-2.23-.08-.38-2.46,5.98-.92.44,1.85.08.33c.25-.88.61-1.57,1.1-2.08.49-.5,1.11-.82,1.88-.93.24-.04.51-.06.81-.06.3,0,.56.01.79.04l.15,3.83-2.05.2c-.58.06-1.04.23-1.36.51-.32.28-.59.65-.81,1.11l1.15,7.42,2.02.12.38,2.45-8,1.24Z" fill="#fff"/><path d="M67.38,35.42l-.26-2.46,1.94-.63-1.01-9.46-2.27.24-.31-2.89,2.27-.24-.18-1.69c-.18-1.71.17-3.08,1.05-4.11s2.21-1.64,3.97-1.83c.44-.05.91-.06,1.4-.04.5.02.92.06,1.28.11l-.03,3.09c-.23-.04-.5-.06-.79-.07-.29,0-.59.01-.89.05-.71.08-1.22.32-1.53.72-.31.4-.43.95-.35,1.63l.18,1.69,3.45-.37.31,2.89-3.45.37,1.01,9.46,2.73.14.26,2.46-8.79.94Z" fill="#fff"/><path d="M94.79,33.8c-2,.05-3.75-.33-5.25-1.13-1.5-.8-2.67-1.96-3.52-3.47s-1.29-3.32-1.34-5.41l-.02-.69c-.05-2,.3-3.78,1.04-5.34.74-1.56,1.82-2.8,3.25-3.71,1.42-.91,3.13-1.39,5.12-1.44,1.4-.03,2.71.13,3.94.5,1.23.37,2.34.94,3.32,1.73l.12,4.98-3.07.07-.5-3.12c-.32-.22-.66-.4-1.03-.56-.37-.15-.77-.26-1.21-.34-.43-.07-.9-.11-1.4-.09-1.17.03-2.17.34-2.99.94-.83.6-1.45,1.43-1.87,2.49s-.62,2.32-.58,3.76l.02.72c.03,1.44.3,2.69.8,3.73s1.19,1.85,2.07,2.41c.88.56,1.92.83,3.11.8.59-.01,1.19-.1,1.79-.25.6-.15,1.14-.34,1.62-.57l.36-2.91,3.07-.07.12,4.93c-.79.55-1.78,1.02-2.97,1.41s-2.52.61-3.98.64Z" fill="#fff"/><path d="M110.76,33.96c-1.51-.06-2.79-.44-3.85-1.15-1.06-.7-1.85-1.65-2.38-2.85-.53-1.2-.76-2.56-.7-4.09v-.3c.07-1.52.41-2.85,1.04-4,.62-1.15,1.49-2.04,2.59-2.66,1.11-.62,2.41-.9,3.91-.84,1.52.06,2.8.44,3.85,1.15,1.05.71,1.84,1.66,2.37,2.85.53,1.19.76,2.55.7,4.08v.3c-.07,1.53-.42,2.87-1.04,4.02-.62,1.15-1.48,2.04-2.59,2.65-1.1.62-2.4.9-3.9.84ZM110.89,30.79c.72.03,1.31-.14,1.78-.51.47-.37.82-.9,1.07-1.58.24-.68.39-1.49.42-2.41v-.3c.05-.91-.03-1.71-.22-2.41-.19-.7-.5-1.26-.95-1.67-.44-.41-1.03-.63-1.75-.66-.71-.03-1.3.14-1.78.52-.48.37-.84.9-1.08,1.59-.24.68-.38,1.48-.41,2.39v.3c-.05.92.02,1.74.21,2.45s.5,1.26.95,1.66c.45.4,1.03.62,1.76.64Z" fill="#fff"/><path d="M119.34,34.01l.26-2.46,2.02-.21,1-9.45-2.14-.65.26-2.48,6.01.63-.05,2.2c.59-.73,1.28-1.27,2.07-1.62.79-.35,1.67-.48,2.62-.38,1.51.16,2.64.77,3.4,1.83.75,1.06,1.02,2.62.8,4.68l-.7,6.63,1.93.63-.26,2.46-7.86-.83.26-2.46,1.8-.24.7-6.62c.11-1.02-.02-1.77-.38-2.24s-.94-.75-1.73-.83c-.59-.06-1.12,0-1.58.21-.46.2-.86.52-1.2.95l-.84,8,1.62.6-.26,2.46-7.75-.82Z" fill="#fff"/><path d="M143.01,37.26c-1.41-.23-2.43-.79-3.07-1.68s-.82-2.18-.55-3.86l1.24-7.72-2.08-.33.46-2.87,2.08.33.59-3.71,4.07.65-.59,3.71,2.78.45-.46,2.87-2.78-.45-1.23,7.7c-.09.59-.04,1.03.17,1.32.21.29.52.47.95.54.23.04.48.06.74.06s.49,0,.68,0l-.12,3.01c-.44.05-.91.08-1.41.08s-.99-.04-1.47-.11Z" fill="#fff"/><path d="M153.91,39.35c-1.43-.3-2.62-.88-3.55-1.74s-1.58-1.91-1.93-3.14c-.35-1.23-.38-2.56-.08-3.98l.12-.55c.31-1.49.87-2.75,1.67-3.78.8-1.03,1.77-1.77,2.92-2.21,1.15-.44,2.41-.52,3.79-.23,1.36.29,2.44.8,3.25,1.53.81.73,1.35,1.65,1.62,2.76.27,1.11.25,2.38-.05,3.81l-.47,2.2-8.81-1.86-.05.08c-.08.67-.04,1.29.12,1.86.16.57.46,1.05.9,1.45.44.4,1.01.67,1.72.82.74.16,1.45.21,2.13.15.68-.05,1.37-.2,2.05-.44l.57,2.73c-.72.37-1.59.62-2.6.75-1.01.13-2.12.07-3.33-.19ZM152.97,29.48l5,1.06.08-.36c.13-.61.16-1.15.09-1.62-.07-.47-.25-.87-.56-1.18s-.74-.53-1.3-.65c-.54-.11-1.02-.07-1.45.14-.43.2-.8.53-1.11.97-.31.45-.57.97-.77,1.57l.03.08Z" fill="#fff"/><path d="M167.68,42.73c-1.1-.31-2.1-.7-2.99-1.17s-1.72-1.03-2.49-1.66l1.12-4.19,2.77.77-.06,2.28c.27.24.57.46.91.65.34.19.75.36,1.22.49.89.25,1.56.28,2,.09.44-.19.73-.5.85-.94.11-.41.02-.82-.28-1.25-.3-.42-.99-.91-2.08-1.47-1.65-.85-2.78-1.77-3.39-2.76-.62-.99-.76-2.09-.43-3.28.23-.82.64-1.51,1.24-2.07.6-.56,1.38-.92,2.35-1.1.96-.17,2.11-.08,3.44.29,1.11.31,2.1.7,2.96,1.17.86.47,1.56.97,2.09,1.49l-1.08,4.05-2.76-.77.12-2.06c-.2-.25-.45-.47-.75-.65s-.67-.33-1.09-.45c-.7-.19-1.28-.2-1.73-.02-.45.18-.74.49-.86.94-.07.25-.07.51,0,.76s.28.53.61.83c.34.3.86.64,1.55,1.02,1.71.93,2.89,1.85,3.53,2.78s.79,2.02.44,3.28c-.38,1.37-1.19,2.34-2.42,2.91-1.23.57-2.84.58-4.82.03Z" fill="#fff"/><path d="M180.85,46.83c-1.35-.46-2.26-1.18-2.74-2.17-.48-.99-.45-2.29.1-3.9l2.5-7.41-2-.68.93-2.75,2,.68,1.2-3.55,3.9,1.32-1.2,3.56,2.67.9-.93,2.75-2.67-.9-2.5,7.39c-.19.56-.21,1.01-.05,1.33.16.32.44.55.85.69.22.08.46.14.72.18.26.05.48.09.67.12l-.62,2.94c-.44-.02-.91-.07-1.41-.15-.5-.08-.97-.2-1.43-.35Z" fill="#fff"/><path d="M67.64,63.64l-.21-2.47,1.45-.33,5.03-18.41,4.22-.35,7.99,17.32,1.48.09.21,2.47-7,.59-.21-2.47,1.4-.37-1.14-2.75-7.22.61-.67,2.9,1.45.13.21,2.47-7,.59ZM74.37,54.44l5.28-.44-2.99-6.84-.25-.6h-.08s-.16.69-.16.69l-1.8,7.2Z" fill="#fff"/><path d="M93.39,62.24c-1.42.04-2.53-.31-3.33-1.07-.79-.76-1.22-1.99-1.27-3.69l-.24-7.81-2.11.07-.09-2.9,2.11-.07-.12-3.75,4.12-.13.12,3.75,2.82-.09.09,2.9-2.82.09.24,7.8c.02.59.16,1.02.41,1.26s.6.36,1.04.35c.24,0,.48-.03.74-.08s.48-.09.67-.12l.45,2.98c-.42.14-.88.25-1.37.35-.49.1-.98.15-1.46.17Z" fill="#fff"/><path d="M97.36,61.83l.03-2.48,2-.4.17-16.27-2.2-.45.03-2.49,6.34.07-.2,19.19,1.99.45-.03,2.48-8.13-.09Z" fill="#fff"/><path d="M111.73,62.41c-1.52-.08-2.7-.55-3.56-1.41-.85-.86-1.24-2-1.17-3.4.07-1.44.72-2.58,1.94-3.42,1.21-.84,2.95-1.2,5.2-1.08l2.02.1.06-1.13c.04-.74-.15-1.34-.55-1.82s-1.04-.74-1.89-.79c-.44-.02-.84.01-1.2.1-.35.09-.68.23-.99.41l-.43,2-2.97-.15.15-3.98c.83-.41,1.71-.73,2.66-.97.95-.23,2-.32,3.15-.26,2,.1,3.55.65,4.67,1.64,1.11.99,1.62,2.35,1.53,4.07l-.33,6.31c-.01.21-.02.41-.03.62s0,.4.02.59l1.59.31-.13,2.47-5.12-.27c-.09-.27-.18-.56-.27-.86-.09-.31-.15-.61-.18-.92-.52.6-1.13,1.06-1.81,1.4-.68.34-1.47.48-2.37.44ZM112.99,59.42c.58.03,1.13-.07,1.66-.3.53-.23.95-.55,1.25-.96l.12-2.42-2.04-.11c-.91-.05-1.6.12-2.09.52s-.75.88-.78,1.46c-.03.55.12.98.45,1.29s.8.49,1.41.52Z" fill="#fff"/><path d="M129.15,63.77c-1.14-.12-2.18-.35-3.14-.67-.96-.32-1.86-.74-2.72-1.24l.43-4.31,2.86.32.31,2.26c.3.19.64.36,1.01.5.37.14.8.23,1.29.29.92.1,1.58.02,1.99-.24.41-.26.64-.61.69-1.06.05-.42-.11-.82-.47-1.18-.36-.37-1.13-.74-2.29-1.11-1.76-.57-3.02-1.3-3.79-2.18-.77-.88-1.08-1.94-.95-3.17.09-.84.39-1.59.9-2.24.5-.65,1.22-1.13,2.14-1.46.92-.33,2.07-.41,3.44-.26,1.14.13,2.18.35,3.11.68.93.33,1.7.7,2.3,1.13l-.42,4.17-2.84-.31-.22-2.05c-.23-.21-.51-.39-.85-.52s-.71-.22-1.15-.27c-.72-.08-1.29,0-1.71.25-.42.25-.65.6-.7,1.06-.03.26.01.51.12.75s.36.48.74.72.95.49,1.7.76c1.84.64,3.15,1.37,3.93,2.18.78.81,1.1,1.87.96,3.16-.16,1.42-.8,2.5-1.92,3.26-1.12.76-2.71,1.03-4.75.8Z" fill="#fff"/></g></svg>